REM DIRINDEX 1\5,1\2\6,1\2\7,1\3\8,1\3\9,1\4\10,1\4\11,1\4\12
REM DIRNAME cjc026,folder01,folder02,folder03,folder04,folder05,folder06,folder07,folder08,folder09,folder10,folder11
TITLE ""
FILE "EJE_DB3000_5th_3B_15.mp3" MP3
  TRACK 01 AUDIO
    TITLE "0:"
    INDEX 01 00:00:00
  TRACK 02 AUDIO
    TITLE "10:cjc026_08754"
    INDEX 01 00:00:08
  TRACK 03 AUDIO
    TITLE "0:"
    INDEX 01 00:01:30
  TRACK 04 AUDIO
    TITLE "11:cjc026_08755"
    INDEX 01 00:01:68
  TRACK 05 AUDIO
    TITLE "0:"
    INDEX 01 00:03:15
  TRACK 06 AUDIO
    TITLE "12:cjc026_08756"
    INDEX 01 00:03:50
  TRACK 07 AUDIO
    TITLE "0:"
    INDEX 01 00:04:72
  TRACK 08 AUDIO
    TITLE "10:cjc026_08757"
    INDEX 01 00:05:35
  TRACK 09 AUDIO
    TITLE "0:"
    INDEX 01 00:06:52
  TRACK 10 AUDIO
    TITLE "11:cjc026_08758"
    INDEX 01 00:07:15
  TRACK 11 AUDIO
    TITLE "0:"
    INDEX 01 00:08:50
  TRACK 12 AUDIO
    TITLE "12:cjc026_08759"
    INDEX 01 00:09:10
  TRACK 13 AUDIO
    TITLE "0:"
    INDEX 01 00:10:30
  TRACK 14 AUDIO
    TITLE "10:cjc026_08760"
    INDEX 01 00:10:68
  TRACK 15 AUDIO
    TITLE "0:"
    INDEX 01 00:12:01
  TRACK 16 AUDIO
    TITLE "11:cjc026_08761"
    INDEX 01 00:12:36
  TRACK 17 AUDIO
    TITLE "0:"
    INDEX 01 00:13:59
  TRACK 18 AUDIO
    TITLE "12:cjc026_08762"
    INDEX 01 00:14:21
  TRACK 19 AUDIO
    TITLE "0:"
    INDEX 01 00:15:27
  TRACK 20 AUDIO
    TITLE "10:cjc026_08763"
    INDEX 01 00:15:65
  TRACK 21 AUDIO
    TITLE "0:"
    INDEX 01 00:17:10
  TRACK 22 AUDIO
    TITLE "11:cjc026_08764"
    INDEX 01 00:17:48
  TRACK 23 AUDIO
    TITLE "0:"
    INDEX 01 00:18:72
  TRACK 24 AUDIO
    TITLE "12:cjc026_08765"
    INDEX 01 00:19:33
  TRACK 25 AUDIO
    TITLE "0:"
    INDEX 01 00:20:55
  TRACK 26 AUDIO
    TITLE "10:cjc026_08766"
    INDEX 01 00:21:18
  TRACK 27 AUDIO
    TITLE "0:"
    INDEX 01 00:22:48
  TRACK 28 AUDIO
    TITLE "11:cjc026_08767"
    INDEX 01 00:23:08
  TRACK 29 AUDIO
    TITLE "0:"
    INDEX 01 00:24:44
  TRACK 30 AUDIO
    TITLE "12:cjc026_08768"
    INDEX 01 00:25:06
  TRACK 31 AUDIO
    TITLE "0:"
    INDEX 01 00:26:37
  TRACK 32 AUDIO
    TITLE "10:cjc026_08769"
    INDEX 01 00:26:72
  TRACK 33 AUDIO
    TITLE "0:"
    INDEX 01 00:28:22
  TRACK 34 AUDIO
    TITLE "11:cjc026_08770"
    INDEX 01 00:28:57
  TRACK 35 AUDIO
    TITLE "0:"
    INDEX 01 00:30:15
  TRACK 36 AUDIO
    TITLE "12:cjc026_08771"
    INDEX 01 00:30:50
  TRACK 37 AUDIO
    TITLE "0:"
    INDEX 01 00:32:00
  TRACK 38 AUDIO
    TITLE "10:cjc026_08772"
    INDEX 01 00:32:38
  TRACK 39 AUDIO
    TITLE "0:"
    INDEX 01 00:33:57
  TRACK 40 AUDIO
    TITLE "11:cjc026_08773"
    INDEX 01 00:34:17
  TRACK 41 AUDIO
    TITLE "0:"
    INDEX 01 00:36:00
  TRACK 42 AUDIO
    TITLE "12:cjc026_08774"
    INDEX 01 00:36:35
  TRACK 43 AUDIO
    TITLE "0:"
    INDEX 01 00:37:54
  TRACK 44 AUDIO
    TITLE "10:cjc026_08775"
    INDEX 01 00:38:17
  TRACK 45 AUDIO
    TITLE "0:"
    INDEX 01 00:39:36
  TRACK 46 AUDIO
    TITLE "11:cjc026_08776"
    INDEX 01 00:39:72
  TRACK 47 AUDIO
    TITLE "0:"
    INDEX 01 00:41:30
  TRACK 48 AUDIO
    TITLE "12:cjc026_08777"
    INDEX 01 00:41:65
  TRACK 49 AUDIO
    TITLE "0:"
    INDEX 01 00:43:09
  TRACK 50 AUDIO
    TITLE "10:cjc026_08778"
    INDEX 01 00:43:44
  TRACK 51 AUDIO
    TITLE "0:"
    INDEX 01 00:44:53
  TRACK 52 AUDIO
    TITLE "11:cjc026_08779"
    INDEX 01 00:45:13
  TRACK 53 AUDIO
    TITLE "0:"
    INDEX 01 00:46:24
  TRACK 54 AUDIO
    TITLE "12:cjc026_08780"
    INDEX 01 00:46:60
  TRACK 55 AUDIO
    TITLE "0:"
    INDEX 01 00:47:68
  TRACK 56 AUDIO
    TITLE "10:cjc026_08781"
    INDEX 01 00:48:28
  TRACK 57 AUDIO
    TITLE "0:"
    INDEX 01 00:49:48
  TRACK 58 AUDIO
    TITLE "11:cjc026_08782"
    INDEX 01 00:50:08
  TRACK 59 AUDIO
    TITLE "0:"
    INDEX 01 00:51:19
  TRACK 60 AUDIO
    TITLE "12:cjc026_08783"
    INDEX 01 00:51:57
  TRACK 61 AUDIO
    TITLE "0:"
    INDEX 01 00:53:02
  TRACK 62 AUDIO
    TITLE "10:cjc026_08784"
    INDEX 01 00:53:37
  TRACK 63 AUDIO
    TITLE "0:"
    INDEX 01 00:54:56
  TRACK 64 AUDIO
    TITLE "11:cjc026_08785"
    INDEX 01 00:55:16
  TRACK 65 AUDIO
    TITLE "0:"
    INDEX 01 00:56:25
  TRACK 66 AUDIO
    TITLE "12:cjc026_08786"
    INDEX 01 00:56:60
  TRACK 67 AUDIO
    TITLE "0:"
    INDEX 01 00:58:05
  TRACK 68 AUDIO
    TITLE "10:cjc026_08787"
    INDEX 01 00:58:42
  TRACK 69 AUDIO
    TITLE "0:"
    INDEX 01 00:59:54
  TRACK 70 AUDIO
    TITLE "11:cjc026_08788"
    INDEX 01 01:00:14
  TRACK 71 AUDIO
    TITLE "0:"
    INDEX 01 01:01:25
  TRACK 72 AUDIO
    TITLE "12:cjc026_08789"
    INDEX 01 01:01:63
  TRACK 73 AUDIO
    TITLE "0:"
    INDEX 01 01:02:72
